<?xml version="1.0" encoding="utf-8"?>
<!-- Generator: Adobe Illustrator 22.1.0, SVG Export Plug-In . SVG Version: 6.00 Build 0)  -->
<svg version="1.1" id="图层_1" xmlns="http://www.w3.org/2000/svg" xmlns:xlink="http://www.w3.org/1999/xlink" x="0px" y="0px"
	 viewBox="0 0 392 67" style="enable-background:new 0 0 392 67;" xml:space="preserve">
<style type="text/css">
	.st0{fill:#fff;}
</style>
<g>
	<path class="st0" d="M31.4,67.3c-0.6,0-1.3-0.2-1.8-0.5L1.8,49.9c-1-0.6-1.6-1.7-1.5-2.9l1.8-30.5c0.1-1,0.7-2,1.7-2.5l26-13.8
		c1-0.5,2.2-0.5,3.2,0l26,13.8c1,0.5,1.6,1.5,1.7,2.5L62.5,47c0.1,1.2-0.5,2.3-1.5,2.9L33.2,66.8C32.7,67.1,32,67.3,31.4,67.3z
		 M7.5,47.1l21.8,13.1c1.3,0.8,2.9,0.8,4.2,0l21.8-13.1c1.2-0.7,1.8-1.9,1.8-3.3l-1.2-24.5c-0.1-1.2-0.8-2.3-1.9-2.9L33.3,5.3
		c-1.2-0.6-2.6-0.6-3.7,0L8.9,16.4C7.8,17,7.1,18.1,7,19.3L5.8,43.8C5.7,45.1,6.4,46.4,7.5,47.1z"/>
</g>
<g>
	<path class="st0" d="M31.4,57c-0.6,0-1.2-0.2-1.7-0.5l-18.4-11c-1-0.6-1.5-1.6-1.5-2.7l0.9-20.4c0-1,0.7-2,1.6-2.5l17.5-9.5
		c1-0.5,2.2-0.5,3.2,0l17.5,9.5c1,0.5,1.6,1.5,1.6,2.5l0.2,5.2c0,1-0.5,1.9-1.3,2.5l-4,2.5l4,2.2c1,0.5,1.7,1.6,1.7,2.7l0.2,5.3
		c0,1.1-0.5,2.2-1.5,2.7l-18.4,11C32.6,56.8,32,57,31.4,57z M15.7,42.3L30.6,51c0.5,0.3,1.1,0.3,1.6,0l14.9-8.8
		c0.5-0.3,0.7-0.8,0.7-1.3l-0.1-1.7c0-0.5-0.3-1-0.8-1.3l-14.7-8.1c-0.5-0.3-1.1-0.3-1.6,0l-11,6.4l0.1-3.5c0-1.3,0.8-2.5,2-3.2
		l8.1-4.6c1-0.6,2.3-0.6,3.3,0l9.1,5l4.5-2.8c0.4-0.3,0.7-0.7,0.6-1.2l-0.1-1.8c0-0.5-0.3-0.9-0.8-1.2l-14.3-7.8
		c-0.5-0.3-1-0.3-1.5,0l-14.3,7.8c-0.5,0.3-0.7,0.7-0.8,1.2L15,41C15,41.5,15.2,42,15.7,42.3z"/>
</g>
<g>
	<path class="st0" d="M98.5,51.4H84V15.7h13.9c6.6,0,10.8,3.8,10.8,9.8c0,3.9-2.4,6.6-4.8,7.6c2.8,1.1,5.4,3.8,5.4,8.3
		C109.2,47.9,104.8,51.4,98.5,51.4z M97.5,20.5h-8v10.2h8c3.5,0,5.8-1.8,5.8-5.1C103.3,22.4,100.9,20.5,97.5,20.5z M98,35.6h-8.5
		v10.9H98c3.8,0,5.9-2.3,5.9-5.5C103.8,37.9,101.7,35.6,98,35.6z"/>
	<path class="st0" d="M112.5,20.9v-5.4h5.4v5.4H112.5z M112.7,51.4V26h5.1v25.4H112.7z"/>
	<path class="st0" d="M132.4,51.4c-4.8,0-7-3.4-7-7.1v-14h-2.9v-3.9h2.9v-7.7h5.1v7.7h4.9v3.9h-4.9V44c0,1.9,0.9,3,2.8,3h2.1v4.4
		H132.4z"/>
	<path class="st0" d="M171.1,51.4l-2.5-7.2h-14.1l-2.5,7.2h-5.8l13.1-35.7h4.4l13.1,35.7H171.1z M161.8,23.8l-5.6,15.8h11
		L161.8,23.8z"/>
	<path class="st0" d="M189.6,51.7c-4.2,0-7.7-0.7-10.7-3.7l3.4-3.4c2.1,2.1,4.8,2.7,7.3,2.7c3.1,0,5.6-1.1,5.6-3.5
		c0-1.7-1-2.8-3.4-3l-4.1-0.4c-4.8-0.4-7.5-2.6-7.5-7c0-5,4.3-7.8,9.6-7.8c3.8,0,7.1,0.8,9.4,2.9l-3.2,3.3c-1.6-1.4-3.9-1.9-6.3-1.9
		c-3.1,0-4.6,1.4-4.6,3.3c0,1.5,0.8,2.7,3.5,2.9l4,0.4c4.8,0.4,7.6,2.7,7.6,7.2C200.2,48.9,195.6,51.7,189.6,51.7z"/>
	<path class="st0" d="M213.1,51.7c-4.2,0-7.7-0.7-10.7-3.7l3.4-3.4c2.1,2.1,4.8,2.7,7.3,2.7c3.1,0,5.6-1.1,5.6-3.5
		c0-1.7-1-2.8-3.4-3l-4.1-0.4c-4.8-0.4-7.5-2.6-7.5-7c0-5,4.3-7.8,9.6-7.8c3.8,0,7.1,0.8,9.4,2.9l-3.2,3.3c-1.6-1.4-3.9-1.9-6.3-1.9
		c-3.1,0-4.6,1.4-4.6,3.3c0,1.5,0.8,2.7,3.5,2.9l4,0.4c4.8,0.4,7.6,2.7,7.6,7.2C223.7,48.9,219.1,51.7,213.1,51.7z"/>
	<path class="st0" d="M231.6,40.1c0,4.4,2.3,7.1,6.5,7.1c2.9,0,4.4-0.8,6.2-2.6l3.3,3.1c-2.6,2.6-5.1,4-9.5,4
		c-6.4,0-11.4-3.4-11.4-13c0-8.2,4.3-13,10.8-13c6.8,0,10.8,5,10.8,12.2v2.3H231.6z M242.4,33.1c-0.8-1.9-2.6-3.2-5-3.2
		c-2.4,0-4.3,1.3-5.1,3.2c-0.5,1.2-0.6,1.9-0.7,3.5h11.4C243,35,242.9,34.3,242.4,33.1z"/>
	<path class="st0" d="M260.4,51.4c-4.8,0-7-3.4-7-7.1v-14h-2.9v-3.9h2.9v-7.7h5.1v7.7h4.9v3.9h-4.9V44c0,1.9,0.9,3,2.8,3h2.1v4.4
		H260.4z"/>
	<path class="st0" d="M289.2,51.7c-3.7,0-6.9-1.4-9.4-3.8c-3.5-3.5-3.5-7.5-3.5-14.3s-0.1-10.8,3.5-14.3c2.5-2.5,5.7-3.8,9.4-3.8
		c6.6,0,11.5,3.9,12.7,11h-5.5c-0.9-3.6-3.3-6.1-7.2-6.1c-2.1,0-4,0.8-5.3,2.2c-1.8,1.9-2.2,4-2.2,11.1c0,7.2,0.4,9.2,2.2,11.1
		c1.3,1.4,3.2,2.2,5.3,2.2c4,0,6.4-2.5,7.3-6.1h5.5C300.7,47.8,295.6,51.7,289.2,51.7z"/>
	<path class="st0" d="M321.9,51.4V35.8c0-3.9-2.3-5.6-5.1-5.6c-2.9,0-5.2,1.8-5.2,5.6v15.6h-5.1V15.7h5.1v12.8
		c1.8-1.9,4.1-2.9,6.6-2.9c5.7,0,8.8,3.8,8.8,9.3v16.4H321.9z"/>
	<path class="st0" d="M347.6,51.4v-2.3c-1.9,1.9-3.6,2.6-6.8,2.6c-3.2,0-5.3-0.8-6.8-2.3c-1.3-1.4-2-3.3-2-5.5c0-4.3,3-7.3,8.8-7.3
		h6.7v-1.8c0-3.2-1.6-4.8-5.6-4.8c-2.8,0-4.2,0.7-5.6,2.5l-3.4-3.2c2.4-2.8,4.9-3.7,9.1-3.7c7,0,10.5,3,10.5,8.7v17H347.6z
		 M347.5,40.1h-6c-3,0-4.6,1.4-4.6,3.7s1.5,3.6,4.7,3.6c2,0,3.4-0.2,4.8-1.5c0.8-0.8,1.1-2,1.1-3.8V40.1z"/>
	<path class="st0" d="M359.3,20.9v-5.4h5.4v5.4H359.3z M359.4,51.4V26h5.1v25.4H359.4z"/>
	<path class="st0" d="M387.1,51.4V35.9c0-4-2.3-5.7-5.1-5.7c-2.9,0-5.3,1.8-5.3,5.7v15.5h-5.1V26h5v2.6c1.8-1.9,4.2-2.9,6.8-2.9
		c2.6,0,4.8,0.9,6.3,2.3c2,1.9,2.6,4.3,2.6,7.2v16.2H387.1z"/>
</g>
</svg>
