<?xml version="1.0" encoding="utf-8"?>
<!-- Generator: Adobe Illustrator 22.1.0, SVG Export Plug-In . SVG Version: 6.00 Build 0)  -->
<svg version="1.1" id="图层_1" xmlns="http://www.w3.org/2000/svg" xmlns:xlink="http://www.w3.org/1999/xlink" x="0px" y="0px"
	 viewBox="0 0 100 100" style="enable-background:new 0 0 100 100;" xml:space="preserve">
<style type="text/css">
	.st0{fill:#1E1034;}
	.st1{fill:url(#SVGID_1_);}
	.st2{fill:url(#SVGID_2_);}
	.st3{fill:url(#SVGID_3_);}
	.st4{fill:#007AE7;}
	.st5{fill:#222238;}
	.st6{fill:url(#SVGID_4_);}
	.st7{fill:url(#SVGID_5_);}
	.st8{fill:#FFFFFF;}
</style>
<rect x="1447.5" y="-1280.5" class="st0" width="796.6" height="548.7"/>
<g>
	<g>
		<linearGradient id="SVGID_1_" gradientUnits="userSpaceOnUse" x1="1732.3368" y1="-851.4219" x2="1951.4589" y2="-1152.7148">
			<stop  offset="0" style="stop-color:#142EBA"/>
			<stop  offset="1" style="stop-color:#36C6FF"/>
		</linearGradient>
		<path class="st1" d="M1850.1-886.6c-3.2,0-6.5-0.9-9.3-2.6l-98.6-58.9c-5.2-3.1-8.2-8.7-8-14.7l4.8-109.5
			c0.2-5.5,3.6-10.6,8.7-13.3l93.9-50.8c5.2-2.8,11.7-2.8,17,0l94,50.8c5.1,2.8,8.5,7.9,8.7,13.3l1.2,27.8
			c0.2,5.4-2.4,10.4-7.2,13.4l-21.3,13.5l21.6,11.7c5.4,2.9,9,8.4,9.2,14.3l1.2,28.7c0.3,6-2.8,11.6-8,14.7l-98.6,58.9
			C1856.5-887.4,1853.3-886.6,1850.1-886.6z M1765.7-965.7l80,47.2c2.7,1.6,6.1,1.6,8.7,0l80-47.2c2.5-1.5,3.9-4.1,3.8-6.9l-0.3-8.9
			c-0.1-2.8-1.7-5.4-4.3-6.8l-79.1-43.4c-2.6-1.4-5.8-1.4-8.4,0.1l-59.3,34.5l0.4-18.6c0.2-7.1,4.2-13.6,10.6-17.3l43.3-25
			c5.4-3.1,12.1-3.2,17.5-0.2l49.1,26.6l24.4-15.3c2.2-1.4,3.5-3.8,3.4-6.3l-0.3-9.9c-0.1-2.6-1.6-5-4.1-6.4l-77-42.1
			c-2.5-1.4-5.6-1.4-8.1,0l-77,42.1c-2.5,1.3-4,3.8-4.1,6.4l-3,90.5C1761.8-969.7,1763.2-967.1,1765.7-965.7z"/>
	</g>
</g>
<rect x="627.5" y="-1280.5" class="st0" width="796.6" height="548.7"/>
<g>
	<g>
		<linearGradient id="SVGID_2_" gradientUnits="userSpaceOnUse" x1="967.5197" y1="-924.2039" x2="1086.3668" y2="-1087.6188">
			<stop  offset="0" style="stop-color:#142EBA"/>
			<stop  offset="1" style="stop-color:#36C6FF"/>
		</linearGradient>
		<path class="st2" d="M1030.1-911c-1.8,0-3.7-0.5-5.3-1.5l-80.9-49.2c-2.9-1.8-4.6-5-4.3-8.4l5.3-88.9c0.2-3,2.1-5.8,5-7.3
			l75.6-40.1c2.9-1.5,6.4-1.5,9.3,0l75.6,40.1c2.9,1.5,4.8,4.3,5,7.3l5.3,88.9c0.2,3.4-1.5,6.6-4.3,8.4l-80.9,49.2
			C1033.7-911.5,1031.9-911,1030.1-911z M960.6-969.9l63.4,38.2c3.7,2.2,8.4,2.2,12.1,0l63.4-38.2c3.4-2,5.3-5.7,5.1-9.5l-3.5-71.2
			c-0.2-3.5-2.3-6.8-5.7-8.6l-59.9-32.2c-3.4-1.8-7.5-1.8-10.9,0l-59.9,32.2c-3.3,1.8-5.5,5-5.7,8.6l-3.5,71.2
			C955.3-975.6,957.2-971.9,960.6-969.9z"/>
	</g>
	<g>
		<linearGradient id="SVGID_3_" gradientUnits="userSpaceOnUse" x1="966.2148" y1="-925.1528" x2="1085.062" y2="-1088.5677">
			<stop  offset="0" style="stop-color:#142EBA"/>
			<stop  offset="1" style="stop-color:#36C6FF"/>
		</linearGradient>
		<path class="st3" d="M1030.1-944.2c-1.8,0-3.5-0.5-5.1-1.4l-53.5-31.9c-2.8-1.7-4.5-4.7-4.3-8l2.6-59.4c0.1-3,1.9-5.7,4.7-7.2
			l51-27.6c2.8-1.5,6.4-1.5,9.2,0l51,27.6c2.8,1.5,4.6,4.3,4.7,7.2l0.7,15.1c0.1,2.9-1.3,5.7-3.9,7.3l-11.6,7.3l11.7,6.4
			c2.9,1.6,4.9,4.6,5,7.8l0.7,15.6c0.1,3.2-1.5,6.3-4.3,8l-53.5,31.9C1033.6-944.7,1031.8-944.2,1030.1-944.2z M984.3-987.1
			l43.4,25.6c1.5,0.9,3.3,0.9,4.7,0l43.4-25.6c1.3-0.8,2.1-2.2,2.1-3.7l-0.2-4.9c-0.1-1.5-0.9-2.9-2.3-3.7l-42.9-23.6
			c-1.4-0.8-3.2-0.8-4.6,0.1l-32.2,18.7l0.2-10.1c0.1-3.8,2.3-7.4,5.7-9.4l23.5-13.5c2.9-1.7,6.6-1.7,9.5-0.1l26.6,14.4l13.2-8.3
			c1.2-0.8,1.9-2,1.9-3.4l-0.2-5.3c0-1.4-0.9-2.7-2.2-3.5l-41.8-22.8c-1.4-0.7-3-0.7-4.4,0l-41.8,22.8c-1.3,0.7-2.2,2-2.2,3.5
			l-1.6,49.1C982.2-989.3,983-987.9,984.3-987.1z"/>
	</g>
</g>
<g>
	<path class="st4" d="M1030.1-293.5c-2.4,0-4.8-0.6-7-1.9L949-339.7c-3.9-2.3-6.2-6.5-6-11l3.6-82.3c0.2-4.1,2.7-7.9,6.6-10
		l70.6-38.2c3.9-2.1,8.8-2.1,12.7,0L1107-443c3.9,2.1,6.4,5.9,6.6,10l0.9,20.9c0.2,4.1-1.8,7.8-5.4,10.1l-16,10.2l16.2,8.8
		c4.1,2.2,6.7,6.3,6.9,10.7l0.9,21.6c0.2,4.5-2.1,8.7-6,11l-74.1,44.2C1034.9-294.2,1032.5-293.5,1030.1-293.5z M966.7-353
		l60.1,35.4c2,1.2,4.5,1.2,6.6,0l60.1-35.4c1.9-1.1,2.9-3.1,2.9-5.2l-0.2-6.7c-0.1-2.1-1.3-4.1-3.2-5.1l-59.4-32.6
		c-2-1.1-4.4-1-6.3,0.1l-44.5,25.9l0.3-14c0.1-5.3,3.1-10.2,7.9-13l32.6-18.7c4-2.3,9.1-2.4,13.2-0.2l36.9,20l18.3-11.5
		c1.7-1.1,2.6-2.8,2.6-4.7l-0.2-7.4c-0.1-2-1.2-3.8-3.1-4.8l-57.8-31.6c-1.9-1-4.2-1-6.1,0l-57.8,31.6c-1.8,1-3,2.8-3.1,4.8l-2.3,68
		C963.8-356,964.9-354,966.7-353z"/>
</g>
<g>
	<path class="st4" d="M-597.9-371.4c-1.8,0-3.7-0.5-5.3-1.5l-80.9-49.2c-2.9-1.8-4.6-5-4.3-8.4l5.3-88.9c0.2-3,2.1-5.8,5-7.3
		l75.6-40.1c2.9-1.5,6.4-1.5,9.3,0l75.6,40.1c2.9,1.5,4.8,4.3,5,7.3l5.3,88.9c0.2,3.4-1.5,6.6-4.3,8.4l-80.9,49.2
		C-594.3-371.9-596.1-371.4-597.9-371.4z M-667.4-430.3l63.4,38.2c3.7,2.2,8.4,2.2,12.1,0l63.4-38.2c3.4-2,5.3-5.7,5.1-9.5
		l-3.5-71.2c-0.2-3.5-2.3-6.8-5.7-8.6l-59.9-32.2c-3.4-1.8-7.5-1.8-10.9,0l-59.9,32.2c-3.3,1.8-5.5,5-5.7,8.6l-3.5,71.2
		C-672.7-435.9-670.8-432.3-667.4-430.3z"/>
</g>
<g>
	<g>
		<path class="st4" d="M50,100c-0.9,0-1.9-0.3-2.7-0.8l-41.1-25c-1.5-0.9-2.3-2.5-2.2-4.2l2.7-45.2c0.1-1.5,1.1-2.9,2.5-3.7
			L47.6,0.6c1.5-0.8,3.3-0.8,4.7,0L90.8,21c1.5,0.8,2.4,2.2,2.5,3.7L96,69.9c0.1,1.7-0.7,3.4-2.2,4.2l-41.1,25
			C51.9,99.7,50.9,100,50,100z M14.7,70.1l32.3,19.4c1.9,1.1,4.3,1.1,6.2,0l32.3-19.4c1.7-1,2.7-2.9,2.6-4.9L86.1,29
			c-0.1-1.8-1.2-3.4-2.9-4.4L52.8,8.3c-1.7-0.9-3.8-0.9-5.5,0L16.7,24.6C15,25.5,14,27.2,13.9,29l-1.8,36.2
			C12,67.2,12.9,69,14.7,70.1z"/>
	</g>
	<g>
		<path class="st4" d="M50,83.1c-0.9,0-1.8-0.2-2.6-0.7L20.2,66.2c-1.4-0.9-2.3-2.4-2.2-4l1.3-30.2c0.1-1.5,1-2.9,2.4-3.7l25.9-14
			c1.4-0.8,3.2-0.8,4.7,0l25.9,14c1.4,0.8,2.3,2.2,2.4,3.7l0.3,7.7c0.1,1.5-0.7,2.9-2,3.7L73.1,47l6,3.2c1.5,0.8,2.5,2.3,2.5,3.9
			l0.3,7.9c0.1,1.6-0.8,3.2-2.2,4L52.6,82.4C51.8,82.9,50.9,83.1,50,83.1z M26.7,61.3l22.1,13c0.7,0.4,1.7,0.4,2.4,0l22.1-13
			c0.7-0.4,1.1-1.1,1.1-1.9l-0.1-2.5c0-0.8-0.5-1.5-1.2-1.9l-21.8-12c-0.7-0.4-1.6-0.4-2.3,0l-16.4,9.5l0.1-5.1
			c0-1.9,1.2-3.8,2.9-4.8l12-6.9c1.5-0.9,3.3-0.9,4.8-0.1l13.5,7.3l6.7-4.2c0.6-0.4,1-1,0.9-1.7l-0.1-2.7c0-0.7-0.5-1.4-1.1-1.8
			L51.1,21c-0.7-0.4-1.6-0.4-2.2,0L27.6,32.7c-0.7,0.4-1.1,1-1.1,1.8l-0.8,25C25.6,60.2,26,60.9,26.7,61.3z"/>
	</g>
</g>
<text transform="matrix(0.8806 0 0 1 110.129 -261.8975)" class="st5" style="font-family:'PangMenZhengDao'; font-size:54.3823px;">币威公链</text>
<rect x="-200.5" y="-1280.5" class="st0" width="796.6" height="548.7"/>
<g>
	<linearGradient id="SVGID_4_" gradientUnits="userSpaceOnUse" x1="139.5197" y1="-962.5511" x2="258.3669" y2="-1125.9661">
		<stop  offset="0" style="stop-color:#142EBA"/>
		<stop  offset="1" style="stop-color:#36C6FF"/>
	</linearGradient>
	<path class="st6" d="M202.1-949.4c-1.8,0-3.7-0.5-5.3-1.5l-80.9-49.2c-2.9-1.8-4.6-5-4.3-8.4l5.3-88.9c0.2-3,2.1-5.8,5-7.3
		l75.6-40.1c2.9-1.5,6.4-1.5,9.3,0l75.6,40.1c2.9,1.5,4.8,4.3,5,7.3l5.3,88.9c0.2,3.4-1.5,6.6-4.3,8.4l-80.9,49.2
		C205.7-949.9,203.9-949.4,202.1-949.4z M132.6-1008.3l63.4,38.2c3.7,2.2,8.4,2.2,12.1,0l63.4-38.2c3.4-2,5.3-5.7,5.1-9.5l-3.5-71.2
		c-0.2-3.5-2.3-6.8-5.7-8.6l-59.9-32.2c-3.4-1.8-7.5-1.8-10.9,0l-59.9,32.2c-3.3,1.8-5.5,5-5.7,8.6l-3.5,71.2
		C127.3-1013.9,129.2-1010.3,132.6-1008.3z"/>
</g>
<g>
	<linearGradient id="SVGID_5_" gradientUnits="userSpaceOnUse" x1="138.2149" y1="-963.5001" x2="257.062" y2="-1126.915">
		<stop  offset="0" style="stop-color:#142EBA"/>
		<stop  offset="1" style="stop-color:#36C6FF"/>
	</linearGradient>
	<path class="st7" d="M202.1-982.6c-1.8,0-3.5-0.5-5.1-1.4l-53.5-31.9c-2.8-1.7-4.5-4.7-4.3-8l2.6-59.4c0.1-3,1.9-5.7,4.7-7.2
		l51-27.6c2.8-1.5,6.4-1.5,9.2,0l51,27.6c2.8,1.5,4.6,4.3,4.7,7.2l0.7,15.1c0.1,2.9-1.3,5.7-3.9,7.3l-11.6,7.3l11.7,6.4
		c2.9,1.6,4.9,4.6,5,7.8l0.7,15.6c0.1,3.2-1.5,6.3-4.3,8L207.1-984C205.6-983,203.8-982.6,202.1-982.6z M156.3-1025.5l43.4,25.6
		c1.5,0.9,3.3,0.9,4.7,0l43.4-25.6c1.3-0.8,2.1-2.2,2.1-3.7l-0.2-4.8c-0.1-1.5-0.9-2.9-2.3-3.7l-42.9-23.6c-1.4-0.8-3.2-0.8-4.6,0.1
		l-32.2,18.7l0.2-10.1c0.1-3.8,2.3-7.4,5.7-9.4l23.5-13.5c2.9-1.7,6.6-1.7,9.5-0.1l26.6,14.4l13.2-8.3c1.2-0.8,1.9-2,1.9-3.4
		l-0.2-5.3c0-1.4-0.9-2.7-2.2-3.5l-41.8-22.8c-1.4-0.7-3-0.7-4.4,0l-41.8,22.8c-1.3,0.7-2.2,2-2.2,3.5l-1.6,49.1
		C154.2-1027.7,155-1026.3,156.3-1025.5z"/>
</g>
<text transform="matrix(0.8806 0 0 1 130.7417 -879.8975)" class="st8" style="font-family:'PangMenZhengDao'; font-size:54.3823px;">币威链</text>
</svg>
